<?xml version="1.0" encoding="UTF-8" standalone="no"?>
<!DOCTYPE svg PUBLIC "-//W3C//DTD SVG 1.1//EN" "http://www.w3.org/Graphics/SVG/1.1/DTD/svg11.dtd">
<svg width="100%" height="100%" viewBox="0 0 1749 1348" version="1.1" xmlns="http://www.w3.org/2000/svg" xmlns:xlink="http://www.w3.org/1999/xlink" xml:space="preserve" xmlns:serif="http://www.serif.com/" style="fill-rule:evenodd;clip-rule:evenodd;stroke-linejoin:round;stroke-miterlimit:2;">
    <g id="Artboard1" transform="matrix(1,0,0,1,-0,-369.001682)">
        <rect x="0" y="369.002" width="1748.031" height="1347.742" style="fill:none;"/>
        <clipPath id="_clip1">
            <rect x="0" y="369.002" width="1748.031" height="1347.742"/>
        </clipPath>
        <g clip-path="url(#_clip1)">
            <g transform="matrix(0.864803,0,0,0.864803,0,49.888279)">
                <g transform="matrix(4.166667,0,0,4.166667,1011.780159,1565.966438)">
                    <path d="M0,-10.816C-1.964,-11.749 -6.815,-11.992 -8.956,-11.593C-10.263,-11.35 -11.274,-10.451 -11.458,-9.09C-11.649,-7.684 -11.546,-3.174 -11.345,-1.727C-11.12,-0.116 -10.085,0.773 -8.499,0.957C-6.624,1.176 -2.518,0.815 -0.706,0.235C4.18,-1.329 4.364,-8.742 0,-10.816" style="fill-rule:nonzero;"/>
                </g>
                <g transform="matrix(4.166667,0,0,4.166667,600.387659,1232.456855)">
                    <path d="M0,-32.793C-10.759,-29.919 -10.002,4.519 6.468,0.378C25.081,-4.302 16.919,-37.312 0,-32.793" style="fill-rule:nonzero;"/>
                </g>
                <g transform="matrix(4.166667,0,0,4.166667,637.305575,854.154355)">
                    <path d="M0,11.969C2.997,7.553 3.137,1.652 1.152,-3.286C0.332,-5.328 -5.76,-12.379 -7.628,-12.75C-8.531,-12.929 -16.83,-11.012 -17.496,-10.431C-19.499,-8.683 -19.414,1.678 -19.164,4.536C-17.982,18.059 -8.775,24.898 0,11.969" style="fill-rule:nonzero;"/>
                </g>
                <g transform="matrix(4.166667,0,0,4.166667,511.079742,1676.904772)">
                    <path d="M0,-35.94C-16.625,-33.929 -16.645,2.467 4.112,0.044C20.286,-1.845 20.389,-38.407 0,-35.94" style="fill-rule:nonzero;"/>
                </g>
                <g transform="matrix(4.166667,0,0,4.166667,1414.715159,1608.127272)">
                    <path d="M0,-10.096C-0.279,-10.448 -0.818,-10.758 -1.258,-10.485C-1.666,-10.231 -4.641,-2.454 -4.848,-1.569C-5,-0.919 -5.196,0.049 -4.451,0.412C-3.94,0.662 2.246,0.651 2.939,0.424C3.899,0.11 3.798,-0.464 3.589,-1.304C3.34,-2.304 0.477,-9.493 0,-10.096" style="fill-rule:nonzero;"/>
                </g>
                <g transform="matrix(4.166667,0,0,4.166667,1878.599742,788.542688)">
                    <path d="M0,175.014C-0.143,176.119 -1.076,176.913 -2.161,177.072C-4.408,177.4 -12.535,176.775 -13.751,177.904C-14.713,178.797 -14.258,184.168 -14.188,185.714C-14.01,189.713 -13.755,193.782 -13.586,197.819C-13.308,204.417 -12.188,212.915 -12.706,219.391C-12.852,221.226 -14.001,222.83 -15.751,223.433C-17.034,223.874 -20.191,223.897 -21.479,223.518C-24.609,222.597 -24.553,218.839 -24.662,216.29C-24.76,214.011 -24.541,211.475 -24.576,209.194C-24.728,199.127 -24.734,189.085 -25.288,179.019C-25.442,178.659 -25.658,178.351 -25.999,178.145C-27.573,177.193 -35.018,178.278 -37.455,178.061C-38.541,177.965 -39.522,177.227 -39.728,176.128C-39.945,174.967 -40.058,170.755 -39.91,169.577C-39.777,168.525 -39.057,167.477 -37.95,167.329L-2.987,166.275C-1.959,166.22 -0.653,166.743 -0.306,167.777C-0.017,168.639 0.134,173.983 0,175.014M-42.401,131.676C-43.749,144.081 -49.771,155.107 -61.631,158.149C-67.465,159.645 -76.071,160.92 -81.864,160.847C-83.596,160.825 -85.386,160.734 -87.114,160.613C-111.688,158.88 -140.899,147.319 -158.252,129.312C-220.691,64.521 -194.354,-62.459 -90.74,-51.796C-83.478,-51.049 -62.524,-41.922 -57.18,-37.025C-49.137,-29.655 -49.823,-8.3 -48.654,2.383C-47.641,11.637 -44.068,24.976 -45.64,33.864C-46.971,41.389 -57.473,32.282 -61.328,30.852C-79.491,24.115 -104.547,31.87 -103.286,51.508C-103.039,55.354 -97.368,69.417 -94.822,72.054C-93.489,73.434 -83.303,78.239 -81.063,78.967C-77.205,80.221 -72.975,80.994 -68.901,80.793C-62.505,80.476 -45.35,64.066 -42.998,72.496C-40.839,80.236 -41.989,97.13 -42.02,105.793C-42.051,114.313 -41.467,123.077 -42.401,131.676M-42.736,220.615C-43.353,222.976 -46.638,222.778 -48.548,222.727C-49.562,222.7 -51.762,222.557 -52.691,222.391C-54.319,222.1 -55.055,220.749 -55.826,219.468C-61.168,210.598 -65.506,200.174 -71.11,191.554C-71.39,191.122 -72.209,189.592 -72.898,190.055C-72.99,190.117 -73.159,191.222 -73.178,191.491C-73.838,200.536 -72.321,210.764 -73.155,219.697C-73.24,220.609 -73.372,221.512 -74.239,222.037C-75.15,222.587 -80.544,222.651 -81.67,222.397C-83.437,221.998 -83.625,219.885 -83.702,218.37C-83.805,216.357 -83.422,213.796 -83.413,211.784C-83.352,199.188 -83.645,186.362 -83.425,173.865C-83.395,172.154 -83.951,167.423 -82.643,166.484C-81.278,165.504 -74.23,165.555 -72.714,166.292C-72.198,166.543 -71.855,167.017 -71.447,167.395C-65.718,176.613 -61.174,186.775 -55.563,196.026C-55.041,196.886 -54.596,197.82 -53.801,198.481C-53.075,198.635 -52.916,196.33 -52.873,195.728C-52.434,189.629 -52.906,183.087 -52.871,177.026C-52.858,174.863 -53.283,169.044 -52.765,167.388C-52.138,165.379 -46.854,165.613 -45.136,165.844C-43.967,166.001 -43.08,166.491 -42.736,167.658L-42.736,220.615ZM-87.786,222.21C-88.686,222.674 -94.137,222.685 -95.374,222.536C-96.957,222.345 -97.631,221.47 -98.262,220.155C-99.848,216.852 -101,211.248 -102.819,208.381C-103.407,207.453 -103.764,207.337 -104.838,207.24C-109.609,206.807 -115.165,207.491 -120.01,207.37C-120.629,207.633 -121.033,208.08 -121.365,208.649C-123.23,211.848 -124.178,216.964 -125.928,220.418C-126.641,221.825 -127.169,222.347 -128.819,222.531C-130.012,222.663 -135.609,222.678 -136.408,222.216C-137.024,221.859 -137.131,221.227 -137.139,220.556C-130.631,202.564 -123.825,184.537 -116.552,166.841C-115.968,166.353 -115.275,166.081 -114.528,165.967C-112.79,165.702 -108.511,165.687 -107.35,167.081C-100.184,184.433 -93.902,202.203 -86.987,219.681C-86.594,220.619 -86.835,221.719 -87.786,222.21M-143.235,220.504C-144.419,220.686 -148.831,220.671 -149.953,220.408C-151.075,220.144 -151.599,219.367 -151.754,218.258L-151.784,166.386C-151.707,165.209 -150.643,164.163 -149.477,163.952C-148.226,163.726 -143.825,163.746 -142.698,164.16C-141.709,164.524 -141.136,165.4 -141.003,166.416L-140.978,217.756C-141.137,219.193 -141.701,220.269 -143.235,220.504M-155.703,217.026C-155.919,219.522 -156.93,220.881 -159.521,221.11C-167.741,221.835 -177.012,220.546 -185.346,221.1C-187.24,220.941 -188.82,219.486 -188.914,217.556L-188.907,167.491C-188.649,165.717 -187.331,164.309 -185.545,164.004C-182.678,163.516 -178.24,163.711 -177.638,167.297L-177.585,207.281C-177.658,208.792 -176.522,210.056 -175.055,210.283C-170.532,210.982 -164.286,209.868 -159.521,210.289C-155.689,210.627 -155.424,213.801 -155.703,217.026M-208.71,198.229C-211.818,198.501 -218.655,196.998 -219.079,201.171C-219.606,206.365 -218.006,213.526 -218.813,218.497C-219.05,219.952 -220.552,221.193 -221.991,221.384C-225.104,221.798 -229.65,222.022 -230.09,217.979L-231.017,167.94C-230.856,166.258 -229.721,164.716 -227.99,164.391C-214.895,164.341 -194.765,160.094 -192.888,178.566C-191.771,189.554 -197.601,197.259 -208.71,198.229M-240.164,223.407C-242.6,223.855 -246.954,223.953 -247.785,220.959C-248.571,211.381 -247.654,201.376 -248.338,191.84C-248.394,191.058 -248.68,187.661 -249.345,187.519C-250.348,187.304 -251.375,191.029 -251.632,191.779C-254.939,201.413 -257.255,211.58 -260.596,221.229C-262.386,224.909 -269.63,225.015 -271.293,221.116C-274.819,211.26 -277.397,200.813 -281.021,191.021C-281.536,189.63 -281.886,187.938 -283.063,186.98L-283.591,187.761L-283.321,221.24C-283.947,224.45 -288.039,224.494 -290.637,224.203C-293.041,223.935 -293.98,222.578 -294.032,220.213L-294.776,170.941C-294.8,169.495 -293.779,167.63 -292.301,167.373C-289.975,166.967 -282.426,166.954 -279.925,167.157C-276.791,167.411 -276.312,170.005 -275.442,172.433C-272.783,179.854 -270.688,190 -267.445,196.822C-266.648,198.499 -265.616,198.558 -264.929,196.784C-261.494,188.484 -260.112,177.436 -256.458,169.451C-255.651,167.687 -254.387,166.851 -252.483,166.56C-250.314,166.229 -243.395,166.065 -241.288,166.385C-239.733,166.622 -238.459,167.632 -238.005,169.153L-237.117,219.615C-237.136,221.464 -238.335,223.071 -240.164,223.407M-373.046,157.552C-377.494,157.328 -385.088,156.863 -389.167,155.588C-394.365,153.965 -396.023,151.46 -397.222,146.048C-401.012,128.931 -394.576,101.811 -394.242,83.239C-393.553,45.001 -388.995,8.708 -389.484,-28.679C-388.756,-33.207 -388.167,-36.908 -384.02,-39.344C-379.95,-41.734 -371.904,-41.99 -367.119,-42.069C-357.27,-42.233 -347.129,-40.806 -337.354,-40.699C-304.779,-40.341 -262.251,-47.939 -236.407,-25.941C-221.701,-13.423 -213.68,13.471 -224.131,31.043C-227.139,36.099 -237.096,43.879 -238.445,47.317C-242.867,58.59 -229.285,61.262 -222.888,66.572C-197.88,87.334 -196.062,121.405 -220.986,143.146C-243.673,162.935 -270.209,157.712 -297.162,157.488C-322.082,157.28 -348.348,158.793 -373.046,157.552M-329.064,224.338C-358.712,221.909 -359.27,168.93 -328.99,166.209C-291.697,162.859 -291.289,227.433 -329.064,224.338M-357.028,208.407C-364.211,228.044 -392.975,228.387 -401.773,209.682C-409.555,193.14 -403.781,167.022 -382.636,165.152C-369.311,163.974 -359.177,170.65 -356.11,183.774C-355.645,185.767 -354.552,189.905 -357.483,190.568C-358.567,190.813 -364.653,190.747 -365.654,190.421C-368.088,189.628 -368.212,184.874 -369.364,182.541C-373.551,174.062 -385.943,173.917 -390.696,181.851C-395.669,190.152 -394.792,210.751 -382.423,212.194C-376.654,212.867 -372.674,211.227 -369.727,206.244C-368.23,203.712 -367.699,199.154 -364.679,198.386C-363.608,198.114 -359.122,198.101 -357.972,198.279C-353.595,198.955 -356.045,205.718 -357.028,208.407M-188.038,121.006C-178.364,119.828 -168.269,127.181 -167.616,137.576C-166.541,154.667 -185.188,158.19 -196.129,148.953C-207.207,139.6 -202.189,122.729 -188.038,121.006M-30.997,120.303C-25.071,115.541 -19.526,116.12 -13.424,120.17C-4.74,125.932 -1.829,141.409 -10.528,148.536C-25.698,160.966 -46.065,132.412 -30.997,120.303M-48.085,-91.791C-78.655,-96.977 -110.49,-94.463 -141.484,-95.894C-200.777,-98.132 -259.827,-101.338 -319.109,-100.575C-465.791,-100.53 -449.876,-2.95 -450.668,109.024C-454.462,261.823 -403.557,276.352 -263.11,272.916C-217.47,271.675 -171.87,269.029 -126.209,269.321C-93.107,268.814 -55.489,271.12 -25.038,260.388C39.165,236.445 32.7,157.196 34.093,99.618L34.095,99.412C33.299,27.432 45.666,-77.333 -48.085,-91.791" style="fill-rule:nonzero;"/>
                </g>
            </g>
        </g>
    </g>
</svg>
